<svg width="16" height="26" viewBox="0 0 16 26" fill="none" xmlns="http://www.w3.org/2000/svg">
<path d="M15.203 2.08928C15.203 1.86328 15.1025 1.66239 14.9519 1.51172L13.6963 0.256136C13.5456 0.105469 13.3196 0.00502002 13.1187 0.00502002C12.9178 0.00502002 12.6918 0.105469 12.5412 0.256136L0.839146 11.9581C0.688477 12.1088 0.58803 12.3348 0.58803 12.5357C0.58803 12.7366 0.688477 12.9626 0.839146 13.1133L12.5412 24.8153C12.6918 24.966 12.9178 25.0664 13.1187 25.0664C13.3196 25.0664 13.5456 24.966 13.6963 24.8153L14.9519 23.5597C15.1025 23.409 15.203 23.183 15.203 22.9821C15.203 22.7812 15.1025 22.5552 14.9519 22.4046L5.08301 12.5357L14.9519 2.66685C15.1025 2.51618 15.203 2.29018 15.203 2.08928Z" fill="#959595"/>
</svg>
