<svg width="16" height="26" viewBox="0 0 16 26" fill="none" xmlns="http://www.w3.org/2000/svg">
<path d="M15.3994 12.5357C15.3994 12.3348 15.299 12.1088 15.1483 11.9581L3.44629 0.256136C3.29562 0.105469 3.06962 0.00502002 2.86872 0.00502002C2.66783 0.00502002 2.44182 0.105469 2.29116 0.256136L1.03557 1.51172C0.884905 1.66239 0.784459 1.88839 0.784459 2.08928C0.784459 2.29018 0.884905 2.51618 1.03557 2.66685L10.9044 12.5357L1.03557 22.4046C0.884905 22.5552 0.784459 22.7812 0.784459 22.9821C0.784459 23.2081 0.884905 23.409 1.03557 23.5597L2.29116 24.8153C2.44182 24.966 2.66783 25.0664 2.86872 25.0664C3.06962 25.0664 3.29562 24.966 3.44629 24.8153L15.1483 13.1133C15.299 12.9626 15.3994 12.7366 15.3994 12.5357Z" fill="#959595"/>
</svg>
