<?xml version="1.0" encoding="UTF-8"?>
<svg xmlns="http://www.w3.org/2000/svg" xmlns:xlink="http://www.w3.org/1999/xlink" width="11px" height="11px" viewBox="0 0 11 11" version="1.1">
<g id="surface1">
<path style="fill:none;stroke-width:1;stroke-linecap:butt;stroke-linejoin:miter;stroke:rgb(100%,63.921569%,65.098039%);stroke-opacity:1;stroke-miterlimit:4;" d="M 12 2.002841 C 6.477273 2.002841 2.002841 6.477273 2.002841 12 C 2.002841 17.522727 6.477273 21.997159 12 21.997159 C 17.522727 21.997159 21.997159 17.522727 21.997159 12 C 21.997159 6.477273 17.522727 2.002841 12 2.002841 Z M 13.713068 14.292614 C 13.900568 14.480114 14.002841 14.735795 14.002841 15 C 14.002841 15.264205 13.900568 15.519886 13.713068 15.707386 C 13.525568 15.903409 13.269886 16.005682 12.997159 16.005682 C 12.732955 16.005682 12.477273 15.903409 12.289773 15.707386 L 9.289773 12.707386 C 9.102273 12.519886 8.991477 12.264205 8.991477 12 C 8.991477 11.735795 9.102273 11.480114 9.289773 11.292614 L 12.289773 8.292614 C 12.681818 7.900568 13.321023 7.900568 13.713068 8.292614 C 14.105114 8.684659 14.105114 9.315341 13.713068 9.707386 L 11.411932 12 Z M 13.713068 14.292614 " transform="matrix(-0.000000000000000028,-0.458333,0.458333,-0.000000000000000028,0,0)"/>
</g>
</svg>
