<svg width="16" height="16" viewBox="0 0 16 16" fill="none" xmlns="http://www.w3.org/2000/svg">
<path d="M9.53237 10.03C10.0346 9.52772 10.2857 8.92169 10.2857 8.21187C10.2857 7.50205 10.0346 6.89602 9.53237 6.39379C9.03013 5.89156 8.42411 5.64044 7.71429 5.64044C7.00446 5.64044 6.39844 5.89156 5.89621 6.39379C5.39397 6.89602 5.14286 7.50205 5.14286 8.21187C5.14286 8.92169 5.39397 9.52772 5.89621 10.03C6.39844 10.5322 7.00446 10.7833 7.71429 10.7833C8.42411 10.7833 9.03013 10.5322 9.53237 10.03ZM10.5167 5.40941C11.2868 6.1795 11.6719 7.11366 11.6719 8.21187C11.6719 9.31008 11.2868 10.2442 10.5167 11.0143C9.74665 11.7844 8.8125 12.1695 7.71429 12.1695C6.61607 12.1695 5.68192 11.7844 4.91183 11.0143C4.14174 10.2442 3.7567 9.31008 3.7567 8.21187C3.7567 7.11366 4.14174 6.1795 4.91183 5.40941C5.68192 4.63933 6.61607 4.25428 7.71429 4.25428C8.8125 4.25428 9.74665 4.63933 10.5167 5.40941ZM12.4855 3.44066C12.6663 3.62147 12.7567 3.8391 12.7567 4.09357C12.7567 4.34803 12.6663 4.56566 12.4855 4.74647C12.3047 4.92727 12.0871 5.01767 11.8326 5.01767C11.5781 5.01767 11.3605 4.92727 11.1797 4.74647C10.9989 4.56566 10.9085 4.34803 10.9085 4.09357C10.9085 3.8391 10.9989 3.62147 11.1797 3.44066C11.3605 3.25986 11.5781 3.16946 11.8326 3.16946C12.0871 3.16946 12.3047 3.25986 12.4855 3.44066ZM8.47768 1.88375C8.01563 1.88375 7.76116 1.88375 7.71429 1.88375C7.66741 1.88375 7.4096 1.88375 6.94085 1.88375C6.47879 1.87705 6.12723 1.87705 5.88616 1.88375C5.64509 1.88375 5.32031 1.89379 4.91183 1.91388C4.51004 1.92727 4.16518 1.96075 3.87723 2.01432C3.59598 2.0612 3.35826 2.12147 3.16406 2.19513C2.82924 2.32906 2.5346 2.52325 2.28013 2.77772C2.02567 3.03218 1.83147 3.32683 1.69754 3.66165C1.62388 3.85584 1.56027 4.09692 1.5067 4.38486C1.45982 4.66611 1.42634 5.01098 1.40625 5.41946C1.39286 5.82124 1.38281 6.14267 1.37612 6.38375C1.37612 6.62482 1.37612 6.97973 1.37612 7.44848C1.38281 7.91053 1.38616 8.165 1.38616 8.21187C1.38616 8.25875 1.38281 8.51656 1.37612 8.98531C1.37612 9.44736 1.37612 9.79892 1.37612 10.04C1.38281 10.2811 1.39286 10.6058 1.40625 11.0143C1.42634 11.4161 1.45982 11.761 1.5067 12.0489C1.56027 12.3302 1.62388 12.5679 1.69754 12.7621C1.83147 13.0969 2.02567 13.3916 2.28013 13.646C2.5346 13.9005 2.82924 14.0947 3.16406 14.2286C3.35826 14.3023 3.59598 14.3659 3.87723 14.4195C4.16518 14.4663 4.51004 14.4998 4.91183 14.5199C5.32031 14.5333 5.64509 14.5433 5.88616 14.55C6.12723 14.55 6.47879 14.55 6.94085 14.55C7.4096 14.5433 7.66741 14.54 7.71429 14.54C7.76116 14.54 8.01563 14.5433 8.47768 14.55C8.94643 14.55 9.30134 14.55 9.54241 14.55C9.78348 14.5433 10.1049 14.5333 10.5067 14.5199C10.9152 14.4998 11.26 14.4663 11.5413 14.4195C11.8292 14.3659 12.0703 14.3023 12.2645 14.2286C12.5993 14.0947 12.894 13.9005 13.1484 13.646C13.4029 13.3916 13.5971 13.0969 13.731 12.7621C13.8047 12.5679 13.865 12.3302 13.9118 12.0489C13.9654 11.761 13.9989 11.4161 14.0123 11.0143C14.0324 10.6058 14.0424 10.2811 14.0424 10.04C14.0491 9.79892 14.0491 9.44736 14.0424 8.98531C14.0424 8.51656 14.0424 8.25875 14.0424 8.21187C14.0424 8.165 14.0424 7.91053 14.0424 7.44848C14.0491 6.97973 14.0491 6.62482 14.0424 6.38375C14.0424 6.14267 14.0324 5.82124 14.0123 5.41946C13.9989 5.01098 13.9654 4.66611 13.9118 4.38486C13.865 4.09692 13.8047 3.85584 13.731 3.66165C13.5971 3.32683 13.4029 3.03218 13.1484 2.77772C12.894 2.52325 12.5993 2.32906 12.2645 2.19513C12.0703 2.12147 11.8292 2.0612 11.5413 2.01432C11.26 1.96075 10.9152 1.92727 10.5067 1.91388C10.1049 1.89379 9.78348 1.88375 9.54241 1.88375C9.30134 1.87705 8.94643 1.87705 8.47768 1.88375ZM15.3783 5.02772C15.4118 5.617 15.4286 6.67839 15.4286 8.21187C15.4286 9.74535 15.4118 10.8067 15.3783 11.396C15.3114 12.7889 14.8962 13.867 14.1328 14.6304C13.3694 15.3938 12.2913 15.809 10.8984 15.8759C10.3092 15.9094 9.24777 15.9262 7.71429 15.9262C6.1808 15.9262 5.11942 15.9094 4.53013 15.8759C3.13728 15.809 2.05915 15.3938 1.29576 14.6304C0.532366 13.867 0.117188 12.7889 0.0502232 11.396C0.0167411 10.8067 0 9.74535 0 8.21187C0 6.67839 0.0167411 5.617 0.0502232 5.02772C0.117188 3.63486 0.532366 2.55674 1.29576 1.79334C2.05915 1.02995 3.13728 0.614771 4.53013 0.547808C5.11942 0.514325 6.1808 0.497584 7.71429 0.497584C9.24777 0.497584 10.3092 0.514325 10.8984 0.547808C12.2913 0.614771 13.3694 1.02995 14.1328 1.79334C14.8962 2.55674 15.3114 3.63486 15.3783 5.02772Z" fill="#BDBDBD"/>
</svg>
