<svg width="16" height="16" viewBox="0 0 16 16" fill="none" xmlns="http://www.w3.org/2000/svg">
<path d="M3.50558 5.48977V15.444H0.190848V5.48977H3.50558ZM3.71652 2.41611C3.72321 2.90495 3.55246 3.31343 3.20424 3.64156C2.86272 3.96968 2.41071 4.13375 1.84821 4.13375H1.82813C1.27902 4.13375 0.837054 3.96968 0.502232 3.64156C0.167411 3.31343 0 2.90495 0 2.41611C0 1.92058 0.170759 1.51209 0.512277 1.19066C0.860491 0.86254 1.3125 0.698477 1.8683 0.698477C2.42411 0.698477 2.86942 0.86254 3.20424 1.19066C3.53906 1.51209 3.70982 1.92058 3.71652 2.41611ZM15.4286 9.73866V15.444H12.1239V10.1204C12.1239 9.41723 11.9866 8.86812 11.7121 8.47303C11.4442 8.07125 11.0223 7.87035 10.4464 7.87035C10.0246 7.87035 9.66964 7.98754 9.3817 8.22191C9.10045 8.44959 8.88951 8.73419 8.74888 9.07571C8.67522 9.2766 8.63839 9.54781 8.63839 9.88933V15.444H5.33371C5.3471 12.7721 5.35379 10.6058 5.35379 8.94513C5.35379 7.28442 5.35045 6.29334 5.34375 5.97191L5.33371 5.48977H8.63839V6.9362H8.6183C8.75223 6.72191 8.88951 6.53441 9.03013 6.3737C9.17076 6.21299 9.35826 6.03888 9.59263 5.85138C9.83371 5.66388 10.125 5.51991 10.4665 5.41946C10.8147 5.31232 11.1998 5.25875 11.6217 5.25875C12.7667 5.25875 13.6875 5.64044 14.3839 6.40383C15.0804 7.16053 15.4286 8.27214 15.4286 9.73866Z" fill="#BDBDBD"/>
</svg>
