<svg width="140" height="140" viewBox="0 0 140 140" fill="none" xmlns="http://www.w3.org/2000/svg">
<g filter="url(#filter0_d_22_107)">
<path d="M71.5813 71.098C71.4615 71.2178 71.2699 71.2178 71.1501 71.098L69.6794 69.6273L68.2086 71.098C68.0888 71.2178 67.8972 71.2178 67.7774 71.098L67.2887 70.6094C67.169 70.4896 67.169 70.298 67.2887 70.1782L69.4638 68.0032C69.5835 67.8834 69.7752 67.8834 69.8949 68.0032L72.07 70.1782C72.1897 70.298 72.1897 70.4896 72.07 70.6094L71.5813 71.098ZM73.3587 69.9339C73.3587 67.9026 71.7107 66.2545 69.6794 66.2545C67.648 66.2545 66 67.9026 66 69.9339C66 71.9652 67.648 73.6132 69.6794 73.6132C71.7107 73.6132 73.3587 71.9652 73.3587 69.9339Z" fill="#B1FFC2"/>
</g>
<defs>
<filter id="filter0_d_22_107" x="0.180466" y="0.435104" width="138.998" height="138.998" filterUnits="userSpaceOnUse" color-interpolation-filters="sRGB">
<feFlood flood-opacity="0" result="BackgroundImageFix"/>
<feColorMatrix in="SourceAlpha" type="matrix" values="0 0 0 0 0 0 0 0 0 0 0 0 0 0 0 0 0 0 127 0" result="hardAlpha"/>
<feOffset/>
<feGaussianBlur stdDeviation="32.9098"/>
<feComposite in2="hardAlpha" operator="out"/>
<feColorMatrix type="matrix" values="0 0 0 0 1 0 0 0 0 0.760784 0 0 0 0 0.333333 0 0 0 1 0"/>
<feBlend mode="normal" in2="BackgroundImageFix" result="effect1_dropShadow_22_107"/>
<feBlend mode="normal" in="SourceGraphic" in2="effect1_dropShadow_22_107" result="shape"/>
</filter>
</defs>
</svg>
