<?xml version="1.0" encoding="UTF-8"?>
<svg xmlns="http://www.w3.org/2000/svg" xmlns:xlink="http://www.w3.org/1999/xlink" width="11px" height="11px" viewBox="0 0 11 11" version="1.1">
<g id="surface1">
<path style=" stroke:none;fill-rule:nonzero;fill:rgb(69.411765%,100%,76.078431%);fill-opacity:1;" d="M 5.5 0.917969 C 2.96875 0.917969 0.917969 2.96875 0.917969 5.5 C 0.917969 8.03125 2.96875 10.082031 5.5 10.082031 C 8.03125 10.082031 10.082031 8.03125 10.082031 5.5 C 10.082031 2.96875 8.03125 0.917969 5.5 0.917969 Z M 7.199219 6.285156 C 7.113281 6.371094 6.996094 6.417969 6.875 6.417969 C 6.753906 6.417969 6.636719 6.371094 6.550781 6.285156 L 5.5 5.230469 L 4.449219 6.285156 C 4.269531 6.464844 3.980469 6.464844 3.800781 6.285156 C 3.621094 6.105469 3.621094 5.8125 3.800781 5.632812 L 5.175781 4.257812 C 5.261719 4.171875 5.378906 4.121094 5.5 4.121094 C 5.621094 4.121094 5.738281 4.171875 5.824219 4.257812 L 7.199219 5.632812 C 7.289062 5.71875 7.335938 5.835938 7.335938 5.957031 C 7.335938 6.082031 7.289062 6.199219 7.199219 6.285156 Z M 7.199219 6.285156 "/>
</g>
</svg>
