<svg width="57" height="57" viewBox="0 0 57 57" fill="none" xmlns="http://www.w3.org/2000/svg">
<g id="Frame" clip-path="url(#clip0_2_771)">
<g id="Group">
<g id="Group_2">
<path id="Vector" d="M28.5104 39.7832C18.0815 39.7832 9.6073 31.3312 9.6073 20.9356V0H47.458L47.4247 20.8912C47.4136 31.309 38.9283 39.7832 28.5104 39.7832ZM11.1511 1.5549V20.9356C11.1511 30.476 18.9367 38.2283 28.4993 38.2283C38.0731 38.2283 45.8587 30.4538 45.8587 20.8912L45.892 1.5549H11.1511Z" fill="#D51820"/>
</g>
<g id="Group_3">
<path id="Vector_2" d="M12.0171 29.7319C8.15208 29.7319 4.98675 28.4213 2.86542 25.9335C1.0884 23.8344 0.111031 20.9689 0.111031 17.8591V5.06451H10.5066V6.61941H1.66593V17.8591C1.66593 22.6127 4.3759 28.177 12.0282 28.177V29.7319H12.0171Z" fill="#D51820"/>
</g>
<g id="Group_4">
<path id="Vector_3" d="M45.1696 29.7319V28.177C53.9436 28.177 54.8988 20.9689 54.8988 17.8591V6.61941H47.0688V5.06451H56.4537V17.8591C56.4537 20.1026 56.0316 23.3124 54.0325 25.9002C52.0555 28.4435 49.079 29.7319 45.1696 29.7319Z" fill="#D51820"/>
</g>
<g id="Group_5">
<path id="Vector_4" d="M44.9359 55.5655H43.381V47.2357H13.8046V55.5655H12.2497V45.6808H44.9359V55.5655Z" fill="#D51820"/>
</g>
<g id="Group_6">
<g id="Group_7">
<path id="Vector_5" d="M23.5553 38.739H22.0004V46.0803H23.5553V38.739Z" fill="#D51820"/>
</g>
<g id="Group_8">
<path id="Vector_6" d="M35.1954 38.739H33.6405V46.0803H35.1954V38.739Z" fill="#D51820"/>
</g>
</g>
<g id="Group_9">
<path id="Vector_7" d="M56.809 54.9103H-0.000389099V56.4651H56.809V54.9103Z" fill="#D51820"/>
</g>
</g>
</g>
<defs>
<clipPath id="clip0_2_771">
<rect width="56.8094" height="56.4651" fill="white"/>
</clipPath>
</defs>
</svg>
