<svg width="18" height="14" viewBox="0 0 18 14" fill="none" xmlns="http://www.w3.org/2000/svg">
<path d="M7.14174 9.54223L12.0033 7.03107L7.14174 4.48977V9.54223ZM9 0.883745C10.125 0.883745 11.2098 0.900486 12.2545 0.933968C13.3058 0.960754 14.0759 0.990888 14.5647 1.02437L15.298 1.06455C15.3047 1.06455 15.3616 1.07124 15.4688 1.08464C15.5759 1.09133 15.6529 1.10138 15.6998 1.11477C15.7467 1.12147 15.8237 1.13486 15.9308 1.15495C16.0446 1.17504 16.1417 1.20183 16.2221 1.23531C16.3025 1.26879 16.3962 1.31232 16.5033 1.36589C16.6105 1.41946 16.7143 1.48642 16.8147 1.56678C16.9152 1.64044 17.0123 1.72749 17.106 1.82794C17.1462 1.86812 17.1964 1.93174 17.2567 2.01879C17.3237 2.09915 17.4208 2.29334 17.548 2.60138C17.6819 2.90942 17.7723 3.24758 17.8192 3.61589C17.8728 4.04446 17.9129 4.50316 17.9397 4.992C17.9732 5.47415 17.9933 5.85249 18 6.12705V6.52883V7.89491C18.0067 8.86589 17.9464 9.83687 17.8192 10.8079C17.7723 11.1762 17.6886 11.511 17.5681 11.8123C17.4475 12.107 17.3404 12.3112 17.2467 12.425L17.106 12.5958C17.0123 12.6962 16.9152 12.7866 16.8147 12.867C16.7143 12.9407 16.6105 13.0043 16.5033 13.0579C16.3962 13.1047 16.3025 13.1449 16.2221 13.1784C16.1417 13.2119 16.0446 13.2387 15.9308 13.2587C15.8237 13.2788 15.7433 13.2956 15.6897 13.309C15.6429 13.3157 15.5658 13.3257 15.4587 13.3391C15.3583 13.3458 15.3047 13.3491 15.298 13.3491C13.6172 13.4764 11.5179 13.54 9 13.54C7.61384 13.5266 6.40848 13.5065 5.38393 13.4797C4.36607 13.4462 3.69643 13.4195 3.375 13.3994L2.88281 13.3592L2.52121 13.319C2.28013 13.2855 2.09598 13.252 1.96875 13.2186C1.84821 13.1851 1.67746 13.1148 1.45647 13.0076C1.24219 12.9005 1.05469 12.7632 0.893973 12.5958C0.853795 12.5556 0.800223 12.4954 0.733259 12.415C0.672991 12.3279 0.575893 12.1304 0.441964 11.8224C0.314732 11.5143 0.227679 11.1762 0.180804 10.8079C0.127232 10.3793 0.0837054 9.92392 0.0502232 9.44178C0.0234375 8.95294 0.00669643 8.57125 0 8.29669V7.89491V6.52883C-0.00669643 5.55785 0.0535714 4.58687 0.180804 3.61589C0.227679 3.24758 0.311384 2.91611 0.43192 2.62147C0.552455 2.32013 0.659598 2.11254 0.753348 1.9987L0.893973 1.82794C0.987723 1.72749 1.08482 1.64044 1.18527 1.56678C1.28571 1.48642 1.38951 1.41946 1.49665 1.36589C1.60379 1.31232 1.69754 1.26879 1.7779 1.23531C1.85826 1.20183 1.95201 1.17504 2.05915 1.15495C2.17299 1.13486 2.25335 1.12147 2.30022 1.11477C2.3471 1.10138 2.42411 1.09133 2.53125 1.08464C2.63839 1.07124 2.69531 1.06455 2.70201 1.06455C4.38281 0.944013 6.48214 0.883745 9 0.883745Z" fill="#BDBDBD"/>
</svg>
